<svg version="1.2" xmlns="http://www.w3.org/2000/svg" viewBox="0 0 600 600" width="600" height="600">
	<style>
		.s0 { fill: #ffffff } 
	</style>
	<g id="layer1">
		<path id="path1-1" class="s0" d="m283.01 58.15c-96.26 161.88-186.08 312.37-282.44 474.18-0.45 0.75-0.64 1.62-0.55 2.48 0.09 0.87 0.46 1.68 1.05 2.31 0.58 0.64 1.36 1.07 2.21 1.23 0.86 0.16 1.74 0.04 2.52-0.34q88-43.18 176.01-86.35c1.73-0.85 3.59-1.41 5.5-1.66 1.92-0.24 3.86-0.17 5.75 0.21 1.89 0.38 3.7 1.07 5.37 2.05 1.67 0.97 3.16 2.21 4.42 3.66q43.9 50.59 87.8 101.18c1.11 1.27 2.47 2.29 4 2.99 1.54 0.7 3.2 1.06 4.89 1.06 1.68 0 3.34-0.36 4.88-1.06 1.53-0.7 2.89-1.72 4-2.99q43.9-50.59 87.8-101.18c1.26-1.45 2.76-2.69 4.42-3.66 1.67-0.98 3.48-1.67 5.37-2.05 1.89-0.38 3.83-0.45 5.75-0.21 1.91 0.25 3.77 0.81 5.5 1.66q88.01 43.17 176.01 86.35c0.77 0.38 1.66 0.5 2.51 0.34 0.85-0.16 1.63-0.59 2.22-1.23 0.59-0.63 0.95-1.45 1.04-2.31 0.09-0.86-0.1-1.73-0.54-2.48q-146.01-245.2-292.03-490.4c-0.72-1.2-1.73-2.19-2.94-2.88-1.22-0.69-2.59-1.05-3.98-1.05-1.4 0-2.77 0.37-3.98 1.06-1.22 0.69-2.23 1.69-2.94 2.89q-1.2 2.02-2.4 4.05-1.2 2.02-2.4 4.05-1.21 2.02-2.41 4.05-1.2 2.02-2.41 4.05zm247.19 423.23q-55.15-27.79-110.3-55.57-2.87-1.45-5.38-3.44-2.51-1.99-4.57-4.46-2.05-2.46-3.56-5.29-1.52-2.83-2.42-5.91-42.91-145.52-85.81-291.05c-0.12-0.4-0.08-0.82 0.09-1.2 0.17-0.37 0.48-0.67 0.86-0.83 0.37-0.17 0.8-0.19 1.19-0.06 0.39 0.13 0.73 0.39 0.94 0.75q107.08 180.74 214.16 361.49c0.44 0.74 0.62 1.6 0.53 2.45-0.09 0.86-0.46 1.66-1.04 2.28-0.59 0.63-1.36 1.05-2.21 1.2-0.84 0.15-1.71 0.02-2.48-0.36zm-250.15 18.63l-56.34-64.93q-2.06-2.38-3.51-5.17-1.45-2.79-2.21-5.85-0.76-3.05-0.79-6.2-0.03-3.15 0.68-6.22l68-295c0.09-0.37 0.31-0.7 0.61-0.92 0.31-0.21 0.69-0.31 1.07-0.27 0.37 0.04 0.72 0.22 0.97 0.51 0.26 0.28 0.4 0.65 0.4 1.02v379.72c0 1.03-0.32 2.03-0.91 2.88-0.58 0.85-1.42 1.5-2.38 1.86-0.97 0.36-2.02 0.41-3.02 0.16-1-0.25-1.9-0.81-2.57-1.59z"/>
	</g>
</svg>