<?xml version="1.0" encoding="UTF-8" standalone="no"?>
<!-- Created with Inkscape (http://www.inkscape.org/) -->

<svg
   width="125.00578mm"
   height="113.94175mm"
   viewBox="0 0 125.00578 113.94175"
   version="1.1"
   id="svg1"
   xmlns="http://www.w3.org/2000/svg"
   xmlns:svg="http://www.w3.org/2000/svg"
   xmlns:rdf="http://www.w3.org/1999/02/22-rdf-syntax-ns#"
   xmlns:cc="http://creativecommons.org/ns#"
   xmlns:dc="http://purl.org/dc/elements/1.1/">
  <title
     id="title9">MISSIO</title>
  <defs
     id="defs1" />
  <g
     id="layer1"
     transform="translate(-42.443383,-151.13933)">
    <path
       id="path1"
       style="display:none;fill:#ffffff;stroke:none;stroke-width:1.5;stroke-dasharray:none;stroke-opacity:1"
       d="M 104.99979,74.999957 V 195.29804 l 24.3334,-28.04067 z m 0,0 -72.88082,113.468523 48.547424,-21.21111 z"
       transform="translate(-2.7550337e-7,69.775702)" />
    <path
       id="path1-1"
       style="display:inline;fill:#ffffff;stroke-width:0.264583"
       d="M 87.046269,171.80538 C 68.765252,202.54142 59.36359,218.29729 43.256644,245.33046 a 5.7720046,5.7720046 47.327232 0 0 7.500752,8.13624 c 8.85261,-4.34189 17.705353,-8.6835 26.557926,-13.02546 a 4.2639718,4.2639718 11.45596 0 1 5.097718,1.03306 c 6.372638,7.3413 12.743883,14.68382 19.1174,22.02436 a 4.5948839,4.5948839 179.99999 0 0 6.93912,0 c 6.36377,-7.32931 12.72527,-14.6606 19.08816,-21.99068 a 4.3218301,4.3218301 168.54475 0 1 5.16696,-1.04703 c 8.77062,4.30196 17.54166,8.60303 26.31238,12.90478 a 5.8401281,5.8401281 132.67697 0 0 7.5897,-8.23152 C 148.92732,215.41714 131.22537,185.70155 113.5246,155.98527 a 9.925585,9.925585 0.0083146 0 0 -17.053368,-0.002 c -1.453043,2.43781 -2.861657,4.80108 -4.010786,6.729 a 11291.231,11291.231 120.76889 0 0 -5.414177,9.09359 z m 65.372011,70.86723 c -7.47883,-3.87667 -13.65153,-7.31797 -21.45503,-11.30285 a 5.7021797,5.7021797 50.222851 0 1 -2.87452,-3.4529 c -6.56764,-22.10535 -13.13527,-41.92532 -19.70291,-63.84982 a 0.65133111,0.65133111 156.62024 0 1 1.18696,-0.51314 c 15.72206,26.64237 29.1427,50.33147 44.86487,76.97399 a 1.5324625,1.5324625 133.27581 0 1 -2.01937,2.14472 z m -50.80822,7.52379 -14.791817,-16.35561 a 4.5766583,4.5766583 76.389523 0 1 -1.028286,-4.24703 l 17.479283,-65.66959 a 0.70713806,0.70713806 7.2933719 0 1 1.39047,0.17796 l 0.47041,84.72738 a 2.0210983,2.0210983 158.77804 0 1 -3.52006,1.36689 z" />
  </g>
  <metadata
     id="metadata9">
    <rdf:RDF>
      <cc:Work
         rdf:about="">
        <dc:title>MISSIO</dc:title>
      </cc:Work>
    </rdf:RDF>
  </metadata>
</svg>
